inDegrees=yes
name=coleta2_motion.mot
DataType=double
version=3
OpenSimVersion=4.4-2022-07-23-0e9fedc
endheader
time	pelvis_tilt	pelvis_tx	pelvis_ty	hip_flexion_r	knee_angle_r	ankle_angle_r	hip_flexion_l	knee_angle_l	ankle_angle_l	lumbar_extension	gearToGround_coord_0	rightPedalToGear_coord_0	leftPedalToGear_coord_0
3.001969814300537	33.51966132131408	-0.7	0.0500000000000003	90.71966132131379	-105.9711271021517	-1.039076492892845e-12	80.38799999999991	-84.66000000000004	5.05043721578303e-13	2.071017320375504e-12	0	-114.0000000000003	-139.067795130823
3.007983922958374	34.08066750549916	-0.7	0.0500000000000003	91.28066750549887	-107.0902522378432	-1.039076492892845e-12	80.38799999999991	-84.66000000000004	5.05043721578303e-13	2.071017320375504e-12	0	-114.0000000000003	-139.067795130823
3.011967897415161	34.08066750549916	-0.7	0.0500000000000003	91.28066750549887	-107.0902522378432	-1.039076492892845e-12	80.38799999999991	-84.66000000000004	5.05043721578303e-13	2.071017320375504e-12	0	-114.0000000000003	-139.067795130823
3.01596999168396	35.01747485808404	-0.7	0.0500000000000003	92.21747485808378	-108.9527970760107	-1.039076492892845e-12	80.38799999999991	-84.66000000000004	5.05043721578303e-13	2.071017320375504e-12	0	-114.0000000000003	-139.067795130823
3.023961067199707	35.70289629546645	-0.7	0.0500000000000003	92.90289629546619	-110.3214991375008	-1.039076492892845e-12	80.38799999999991	-84.66000000000004	5.05043721578303e-13	2.071017320375504e-12	0	-114.0000000000003	-139.067795130823
3.033967018127441	36.2406379176221	-0.7	0.0500000000000003	93.44063791762187	-111.39741179048	-1.039076492892845e-12	80.38799999999991	-84.66000000000004	5.05043721578303e-13	2.071017320375504e-12	0	-114.0000000000003	-139.067795130823
3.041965007781982	36.72225391435062	-0.7	0.0500000000000003	93.92225391435039	-112.360825675481	-1.039076492892845e-12	80.38799999999991	-84.66000000000004	5.05043721578303e-13	2.071017320375504e-12	0	-114.0000000000003	-139.067795130823
3.04796290397644	37.27372956820819	-0.7	0.0500000000000003	94.47372956820796	-113.4635617347576	-1.039076492892845e-12	80.38799999999991	-84.66000000000004	5.05043721578303e-13	2.071017320375504e-12	0	-114.0000000000003	-139.067795130823
3.054970979690551	37.27289247119548	-0.7	0.0500000000000003	94.47289247119527	-113.335529092196	-1.039076492892845e-12	80.38799999999991	-84.66000000000004	5.05043721578303e-13	2.071017320375504e-12	0	-114.0000000000003	-139.067795130823
3.060967922210693	37.27287885286195	-0.7	0.0500000000000003	94.47287885286178	-113.1543937327091	-1.039076492892845e-12	80.38799999999991	-84.66000000000004	5.05043721578303e-13	2.071017320375504e-12	0	-114.0000000000003	-139.067795130823
3.06796383857727	38.09024522858918	-0.7	0.0500000000000003	95.29024522858901	-114.7865212159712	-1.039076492892845e-12	80.38799999999991	-84.66000000000004	5.05043721578303e-13	2.071017320375504e-12	0	-114.0000000000003	-139.067795130823
3.071966886520385	38.08900885008139	-0.7	0.0500000000000003	95.28900885008119	-114.3732124743004	-1.039076492892845e-12	80.38799999999991	-84.66000000000004	5.05043721578303e-13	2.071017320375504e-12	0	-114.0000000000003	-139.067795130823
3.075968027114868	38.72371989369637	-0.7	0.0500000000000003	95.92371989369617	-115.640606495938	-1.039076492892845e-12	80.38799999999991	-84.66000000000004	5.05043721578303e-13	2.071017320375504e-12	0	-114.0000000000003	-139.067795130823
3.084994077682495	38.72273395049849	-0.7	0.0500000000000003	95.92273395049826	-114.9199050218595	-1.039076492892845e-12	80.38799999999991	-84.66000000000004	5.05043721578303e-13	2.071017320375504e-12	0	-114.0000000000003	-139.067795130823
3.09095811843872	39.21840983594378	-0.7	0.0500000000000003	96.41840983594355	-115.9095539171844	-1.039076492892845e-12	80.38799999999991	-84.66000000000004	5.05043721578303e-13	2.071017320375504e-12	0	-114.0000000000003	-139.067795130823
3.09696888923645	39.21740768548857	-0.7	0.0500000000000003	96.41740768548831	-112.0917306977357	-1.039076492892845e-12	80.38799999999991	-84.66000000000004	5.05043721578303e-13	2.071017320375504e-12	0	-114.0000000000003	-139.067795130823
3.111997842788696	39.89520855725884	-0.7	0.0500000000000003	97.09520855725863	-113.4440110192462	-1.039076492892845e-12	80.38799999999991	-84.66000000000004	5.05043721578303e-13	2.071017320375504e-12	0	-114.0000000000003	-139.067795130823
3.116988897323608	39.89386591108604	-0.7	0.0500000000000003	97.09386591108584	-109.0043161319122	-1.039076492892845e-12	80.38799999999991	-84.66000000000004	5.05043721578303e-13	2.071017320375504e-12	0	-114.0000000000003	-139.067795130823
3.123998880386352	40.34768582167485	-0.7	0.0500000000000003	97.54768582167466	-109.9089745731926	-1.039076492892845e-12	80.38799999999991	-84.66000000000004	5.05043721578303e-13	2.071017320375504e-12	0	-114.0000000000003	-139.067795130823
3.13096809387207	40.79121610688849	-0.7	0.0500000000000003	97.99121610688829	-110.7960229831898	-1.039076492892845e-12	80.38799999999991	-84.66000000000004	5.05043721578303e-13	2.071017320375504e-12	0	-114.0000000000003	-139.067795130823
3.137988805770874	40.79047955092462	-0.7	0.0500000000000003	97.99047955092448	-109.9219430620823	-1.039076492892845e-12	80.38799999999991	-84.66000000000004	5.05043721578303e-13	2.071017320375504e-12	0	-114.0000000000003	-139.067795130823
3.143963813781738	40.7903473843061	-0.7	0.0500000000000003	97.99034738430591	-107.6571894810621	-1.039076492892845e-12	80.38799999999991	-84.66000000000004	5.05043721578303e-13	2.071017320375504e-12	0	-114.0000000000003	-139.067795130823
3.149988174438476	40.79036878979147	-0.7	0.0500000000000003	97.99036878979122	-105.7236033822098	-1.039076492892845e-12	80.38799999999991	-84.66000000000004	5.05043721578303e-13	2.071017320375504e-12	0	-114.0000000000003	-139.067795130823
3.154952049255371	41.24600126293821	-0.7	0.0500000000000003	98.44600126293797	-106.6326383807719	-1.039076492892845e-12	80.38799999999991	-84.66000000000004	5.05043721578303e-13	2.071017320375504e-12	0	-114.0000000000003	-139.067795130823
3.158970832824707	41.24529013248488	-0.7	0.0500000000000003	98.44529013248463	-106.1338649128609	-1.039076492892845e-12	80.38799999999991	-84.66000000000004	5.05043721578303e-13	2.071017320375504e-12	0	-114.0000000000003	-139.067795130823
3.163962841033935	41.64991239346496	-0.7	0.0500000000000003	98.84991239346468	-106.941689751043	-1.039076492892845e-12	80.38799999999991	-84.66000000000004	5.05043721578303e-13	2.071017320375504e-12	0	-114.0000000000003	-139.067795130823
3.167986869812011	41.64926898927012	-0.7	0.0500000000000003	98.84926898926982	-106.4130595769815	-1.039076492892845e-12	80.38799999999991	-84.66000000000004	5.05043721578303e-13	2.071017320375504e-12	0	-114.0000000000003	-139.067795130823
3.173978805541992	42.01180933989115	-0.7	0.0500000000000003	99.21180933989083	-107.1368336356396	-1.039076492892845e-12	80.38799999999991	-84.66000000000004	5.05043721578303e-13	2.071017320375504e-12	0	-114.0000000000003	-139.067795130823
3.17797303199768	42.39030168699081	-0.7	0.0500000000000003	99.59030168699049	-107.8937490942696	-1.039076492892845e-12	80.38799999999991	-84.66000000000004	5.05043721578303e-13	2.071017320375504e-12	0	-114.0000000000003	-139.067795130823
3.182983875274658	42.38966059228547	-0.7	0.0500000000000003	99.58966059228514	-107.0681017901796	-1.039076492892845e-12	80.38799999999991	-84.66000000000004	5.05043721578303e-13	2.071017320375504e-12	0	-114.0000000000003	-139.067795130823
3.188967943191528	43.09413566575969	-0.7	0.0500000000000003	100.2941356657594	-108.4745500968059	-1.039076492892845e-12	80.38799999999991	-84.66000000000004	5.05043721578303e-13	2.071017320375504e-12	0	-114.0000000000003	-139.067795130823
3.192970037460327	43.09304262677122	-0.7	0.0500000000000003	100.293042626771	-107.8674170689504	-1.039076492892845e-12	80.38799999999991	-84.66000000000004	5.05043721578303e-13	2.071017320375504e-12	0	-114.0000000000003	-139.067795130823
3.198975086212158	43.92619223806239	-0.7	0.0500000000000003	101.1261922380621	-109.5309366430365	-1.039076492892845e-12	80.38799999999991	-84.66000000000004	5.05043721578303e-13	2.071017320375504e-12	0	-114.0000000000003	-139.067795130823
3.202969074249267	43.92484708117265	-0.7	0.0500000000000003	101.1248470811724	-108.2486475266986	-1.039076492892845e-12	80.38799999999991	-84.66000000000004	5.05043721578303e-13	2.071017320375504e-12	0	-114.0000000000003	-139.067795130823
3.211993932723999	43.9247840145312	-0.7	0.0500000000000003	101.124784014531	-106.5056473253759	-1.039076492892845e-12	80.38799999999991	-84.66000000000004	5.05043721578303e-13	2.071017320375504e-12	0	-114.0000000000003	-139.067795130823
3.215961933135986	44.21802681471515	-0.7	0.0500000000000003	101.4180268147149	-107.091363677643	-1.039076492892845e-12	80.38799999999991	-84.66000000000004	5.05043721578303e-13	2.071017320375504e-12	0	-114.0000000000003	-139.067795130823
3.22196888923645	44.21798659191862	-0.7	0.0500000000000003	101.4179865919184	-106.6504869025661	-1.039076492892845e-12	80.38799999999991	-84.66000000000004	5.05043721578303e-13	2.071017320375504e-12	0	-114.0000000000003	-139.067795130823
3.225982904434204	44.53032297806672	-0.7	0.0500000000000003	101.7303229780665	-107.2739949434568	-1.039076492892845e-12	80.38799999999991	-84.66000000000004	5.05043721578303e-13	2.071017320375504e-12	0	-114.0000000000003	-139.067795130823
3.232965946197509	44.5297449805065	-0.7	0.0500000000000003	101.7297449805063	-105.9843254068238	-1.039076492892845e-12	80.38799999999991	-84.66000000000004	5.05043721578303e-13	2.071017320375504e-12	0	-114.0000000000003	-139.067795130823
3.236956834793091	45.10916179308202	-0.7	0.0500000000000003	102.3091617930819	-107.1408273439335	-1.039076492892845e-12	80.38799999999991	-84.66000000000004	5.05043721578303e-13	2.071017320375504e-12	0	-114.0000000000003	-139.067795130823
3.24197506904602	45.1082282546443	-0.7	0.0500000000000003	102.3082282546442	-106.2528330831713	-1.039076492892845e-12	80.38799999999991	-84.66000000000004	5.05043721578303e-13	2.071017320375504e-12	0	-114.0000000000003	-139.067795130823
